<?xml version="1.0" encoding="UTF-8"?>
<!DOCTYPE svg PUBLIC "-//W3C//DTD SVG 1.1//EN" "http://www.w3.org/Graphics/SVG/1.1/DTD/svg11.dtd">
<svg xmlns="http://www.w3.org/2000/svg" xml:space="preserve" xmlns:xlink="http://www.w3.org/1999/xlink" width="100%" height="100%" viewBox="1980 352 520 520">

   <title>SVG Logo</title>
   <desc>Designed for the SVG Logo Contest in 2006 by Harvey Rayner. It is available under the Creative Commons license for those who have an SVG product or who are using SVG on their site.</desc>
   <!--/Creative Commons License--><!-- <rdf:RDF xmlns="http://web.resource.org/cc/" xmlns:dc="http://purl.org/dc/elements/1.1/" xmlns:rdf="http://www.w3.org/1999/02/22-rdf-syntax-ns#" xmlns:rdfs="http://www.w3.org/2000/01/rdf-schema#">
      <Work rdf:about="">
      <license rdf:resource="http://creativecommons.org/licenses/by-nd/2.5/" />
      <dc:type rdf:resource="http://purl.org/dc/dcmitype/StillImage" />
      </Work>
   <License rdf:about="http://creativecommons.org/licenses/by-nd/2.5/"><permits rdf:resource="http://web.resource.org/cc/Reproduction"/><permits rdf:resource="http://web.resource.org/cc/Distribution"/><requires rdf:resource="http://web.resource.org/cc/Notice"/><requires rdf:resource="http://web.resource.org/cc/Attribution"/></License></rdf:RDF> -->
   
 
 <g>
  <path fill='#000000' d="M1995.59 617.046c0,37.8969 30.7919,68.8247 68.6334,69.0614 -26.5923,26.9246 -26.4966,70.567 0.302128,97.3607 26.8138,26.8138 70.4965,26.8944 97.4161,0.251773 0.176241,37.8617 31.1041,68.6837 69.006,68.6837 37.9271,0 68.87,-30.8674 69.006,-68.7593 26.8944,26.698 70.6022,26.6426 97.4161,-0.176241 26.8038,-26.7987 26.8743,-70.4713 0.22156,-97.3657 37.8818,-0.191348 68.7139,-31.1343 68.7139,-69.0564 0,-37.9019 -30.7969,-68.8298 -68.6485,-69.0564 26.6074,-26.9196 26.5117,-70.567 -0.287021,-97.3657 -26.7937,-26.7937 -70.431,-26.8944 -97.3557,-0.302128 -0.236667,-37.8415 -31.1695,-68.6334 -69.0664,-68.6334 -37.8919,0 -68.8197,30.7818 -69.0664,68.6132 -26.9297,-26.5772 -70.562,-26.4714 -97.3557,0.32227 -26.7937,26.7937 -26.8994,70.431 -0.312199,97.3607 -37.8365,0.241702 -68.6233,31.1695 -68.6233,69.0614z"/>
  
  
  <path fill='#FFB13B' d="M2167.471,590.8163 c0.0100709,-0.0251773 0.0201419,-0.0503546 0.0302128,-0.0805674l-0.0302128 0.0352482 0 0.0453192zm-0.0201419 -0.065461l-54.1715 -54.1715c-9.48681,-0.0201419 -18.9686,-3.63561 -26.1794,-10.8464 -14.4669,-14.4719 -14.4669,-38.0681 0,-52.535 14.4669,-14.4669 38.0681,-14.4669 52.535,0 7.23093,7.22589 10.8464,16.7379 10.8514,26.2499l54.1514 54.1514c0.0151064,-0.00503546 0.0251773,-0.0100709 0.0352482,-0.0151064l-0.0100709 0 0 -76.6196c-6.70724,-6.72234 -10.8615,-15.9926 -10.8615,-26.2046 0,-20.4591 16.6875,-37.1466 37.1466,-37.1466 20.4591,0 37.1466,16.6875 37.1466,37.1466 0,10.2119 -4.15426,19.4822 -10.8665,26.2096l0 76.6096 54.1866 -54.1866c0.0151064,-9.49185 3.63057,-18.9787 10.8514,-26.1945 14.4669,-14.4669 38.0631,-14.4669 52.53,0 14.4719,14.4669 14.4719,38.0631 0,52.535 -7.21582,7.21582 -16.7026,10.8313 -26.1945,10.8464l-54.1766 54.1766 76.6045 0c6.72738,-6.7022 15.9977,-10.8565 26.2046,-10.8565 20.4591,0 37.1466,16.6875 37.1466,37.1466 0,20.4591 -16.6875,37.1466 -37.1466,37.1466 -10.2019,0 -19.4621,-4.14922 -26.1894,-10.8464l-76.6297 0 0 -0.0453192c-0.00503546,0.0151064 -0.0151064,0.0352482 -0.0201419,0.0553901l54.1514 54.1514c9.51199,0.00503546 19.024,3.6205 26.2499,10.8514 14.4719,14.4669 14.4719,38.0681 0,52.535 -14.4669,14.4669 -38.0631,14.4669 -52.53,0 -7.21582,-7.21078 -10.8313,-16.6976 -10.8514,-26.1844l-54.1866 -54.1866 0 76.5944c6.71227,6.72738 10.8665,16.0027 10.8665,26.2146 0,20.4591 -16.6875,37.1466 -37.1466,37.1466 -20.4591,0 -37.1466,-16.6875 -37.1466,-37.1466 0,-10.2119 4.15929,-19.4872 10.8665,-26.2146l0 -76.6146c-0.0352482,-0.0151064 -0.075532,-0.0302128 -0.115816,-0.0503546l0.0906384 0.0906384 -54.1564 54.1564c-0.0201419,9.49185 -3.63561,18.9787 -10.8514,26.1945 -14.4669,14.4669 -38.0681,14.4669 -52.535,0 -14.4669,-14.4669 -14.4669,-38.0681 0,-52.535 7.21582,-7.21582 16.6976,-10.8313 26.1894,-10.8514l54.1615 -54.1564 0.0856029 0.0906384c-0.0201419,-0.0553901 -0.0453192,-0.11078 -0.065461,-0.16617l0 0.0704965 -76.6196 0c-6.72234,6.69717 -15.9876,10.8464 -26.1894,10.8464 -20.4591,0 -37.1466,-16.6875 -37.1466,-37.1466 0,-20.4591 16.6875,-37.1466 37.1466,-37.1466 10.2069,0 19.4721,4.14922 26.1995,10.8514l76.5894 0zm126.964 0.0151064l-0.00503546 0.0100709c0,0.00503546 0.00503546,0.0100709 0.00503546,0.0151064l0 -0.0251773z"/>
 </g>
</svg>
